<svg preserveAspectRatio="none" overflow="visible" style="display: block;" width="120.533" height="123.617" viewBox="0 0 120.533 123.617" fill="none" xmlns="http://www.w3.org/2000/svg">
<g id="Ellipse 1">
<path fill-rule="evenodd" clip-rule="evenodd" d="M112.533 109.719C117.567 106.839 120.616 101.449 120.531 95.6506C120.263 77.3408 115.592 58.844 106.076 41.8596C96.6711 25.0751 83.6592 11.7746 68.6317 2.39769C63.5083 -0.79923 57.0245 -0.79923 51.9011 2.39769C36.8735 11.7746 23.8617 25.0751 14.4572 41.8596C4.94075 58.844 0.269576 77.3408 0.00172532 95.6506C-0.0831039 101.449 2.96536 106.839 7.99955 109.719C23.4826 118.574 41.303 123.617 60.2664 123.617C79.2298 123.617 97.0501 118.574 112.533 109.719Z" fill="white"/>
<path fill-rule="evenodd" clip-rule="evenodd" d="M112.533 109.719C117.567 106.839 120.616 101.449 120.531 95.6506C120.263 77.3408 115.592 58.844 106.076 41.8596C96.6711 25.0751 83.6592 11.7746 68.6317 2.39769C63.5083 -0.79923 57.0245 -0.79923 51.9011 2.39769C36.8735 11.7746 23.8617 25.0751 14.4572 41.8596C4.94075 58.844 0.269576 77.3408 0.00172532 95.6506C-0.0831039 101.449 2.96536 106.839 7.99955 109.719C23.4826 118.574 41.303 123.617 60.2664 123.617C79.2298 123.617 97.0501 118.574 112.533 109.719Z" fill="#12407C"/>
<path fill-rule="evenodd" clip-rule="evenodd" d="M0.00172532 95.6506C-0.0831039 101.449 2.96536 106.839 7.99955 109.719C23.4826 118.574 41.303 123.617 60.2664 123.617C79.2298 123.617 97.0501 118.574 112.533 109.719C117.567 106.839 120.616 101.449 120.531 95.6506C120.263 77.3408 115.592 58.844 106.076 41.8596C96.6711 25.0751 83.6592 11.7746 68.6317 2.39769C63.5083 -0.79923 57.0245 -0.79923 51.9011 2.39769C36.8735 11.7746 23.8617 25.0751 14.4572 41.8596C4.94075 58.844 0.269576 77.3408 0.00172532 95.6506Z" fill="white"/>
<path fill-rule="evenodd" clip-rule="evenodd" d="M0.00172532 95.6506C-0.0831039 101.449 2.96536 106.839 7.99955 109.719C23.4826 118.574 41.303 123.617 60.2664 123.617C79.2298 123.617 97.0501 118.574 112.533 109.719C117.567 106.839 120.616 101.449 120.531 95.6506C120.263 77.3408 115.592 58.844 106.076 41.8596C96.6711 25.0751 83.6592 11.7746 68.6317 2.39769C63.5083 -0.79923 57.0245 -0.79923 51.9011 2.39769C36.8735 11.7746 23.8617 25.0751 14.4572 41.8596C4.94075 58.844 0.269576 77.3408 0.00172532 95.6506Z" fill="#12407C"/>
<path fill-rule="evenodd" clip-rule="evenodd" d="M68.6317 2.39769C63.5083 -0.79923 57.0245 -0.79923 51.9011 2.39769C36.8735 11.7746 23.8617 25.0751 14.4572 41.8596C4.94075 58.844 0.269576 77.3408 0.00172532 95.6506C-0.0831039 101.449 2.96536 106.839 7.99955 109.719C23.4826 118.574 41.303 123.617 60.2664 123.617C79.2298 123.617 97.0501 118.574 112.533 109.719C117.567 106.839 120.616 101.449 120.531 95.6506C120.263 77.3408 115.592 58.844 106.076 41.8596C96.6711 25.0751 83.6592 11.7746 68.6317 2.39769Z" fill="white"/>
<path fill-rule="evenodd" clip-rule="evenodd" d="M68.6317 2.39769C63.5083 -0.79923 57.0245 -0.79923 51.9011 2.39769C36.8735 11.7746 23.8617 25.0751 14.4572 41.8596C4.94075 58.844 0.269576 77.3408 0.00172532 95.6506C-0.0831039 101.449 2.96536 106.839 7.99955 109.719C23.4826 118.574 41.303 123.617 60.2664 123.617C79.2298 123.617 97.0501 118.574 112.533 109.719C117.567 106.839 120.616 101.449 120.531 95.6506C120.263 77.3408 115.592 58.844 106.076 41.8596C96.6711 25.0751 83.6592 11.7746 68.6317 2.39769Z" fill="#12407C"/>
<path d="M106.076 41.8596C115.592 58.844 120.263 77.3408 120.531 95.6506C120.616 101.449 117.567 106.839 112.533 109.719C97.0501 118.574 79.2298 123.617 60.2664 123.617C41.303 123.617 23.4826 118.574 7.99955 109.719C2.96536 106.839 -0.0831039 101.449 0.00172532 95.6506C0.269576 77.3408 4.94075 58.844 14.4572 41.8596C23.8617 25.0751 36.8735 11.7746 51.9011 2.39769C57.0245 -0.79923 63.5083 -0.79923 68.6317 2.39769C83.6592 11.7746 96.6711 25.0751 106.076 41.8596Z" stroke="white" stroke-width="12" stroke-linejoin="bevel"/>
</g>
</svg>
