<svg preserveAspectRatio="none" overflow="visible" style="display: block;" width="74.8" height="73.8" viewBox="0 0 74.8 73.8" fill="none" xmlns="http://www.w3.org/2000/svg">
<g id="Asterisk 1" filter="url(#filter0_f_0_23)">
<path d="M20.9512 61.8684C22.3464 62.8982 23.9663 63.3953 25.5743 63.3953C27.9943 63.3953 30.3826 62.2693 31.9196 60.1533C31.924 60.1488 31.9282 60.1441 31.9321 60.1392C31.9358 60.1342 31.9395 60.1293 31.943 60.1243L31.9483 60.1166C31.9521 60.1114 31.9555 60.1062 31.959 60.1013L37.398 52.4996L42.8369 60.1013C42.8422 60.1095 42.8478 60.1159 42.8531 60.1229C42.8557 60.1262 42.858 60.1295 42.8605 60.1333C45.4224 63.6798 50.345 64.4612 53.8487 61.8724C57.3564 59.2839 58.1407 54.2788 55.6104 50.7045L55.6048 50.6955C55.6002 50.688 55.5965 50.6823 55.5907 50.6764L50.1635 43.0706L58.9565 40.1615C63.0869 38.795 65.357 34.2629 64.013 30.0632C62.6693 25.8637 58.2156 23.5556 54.0812 24.9181L45.2885 27.8153L45.2845 18.4104C45.2803 13.9944 41.7451 10.4 37.4019 10.4C33.0587 10.4 29.5234 13.9944 29.5195 18.4144L29.5116 27.8113L20.7187 24.9141C20.7152 24.9141 20.711 24.9133 20.7067 24.9121C20.7012 24.9105 20.6955 24.9083 20.6911 24.906C16.5646 23.5596 12.1268 25.8677 10.7868 30.0595C9.44674 34.2509 11.7012 38.767 15.8118 40.1455C15.8156 40.1466 15.8191 40.1481 15.8223 40.1495L15.8368 40.1551L15.8434 40.1575L24.6323 43.0666L19.2052 50.6724C19.2033 50.6764 19.2003 50.6804 19.1974 50.6845C19.1944 50.6885 19.1915 50.6925 19.1895 50.6965C16.6553 54.2708 17.4435 59.2799 20.9512 61.8684Z" fill="#12407C"/>
</g>
<defs>
<filter id="filter0_f_0_23" x="5.76788e-09" y="0" width="74.8" height="73.8" filterUnits="userSpaceOnUse" color-interpolation-filters="sRGB">
<feFlood flood-opacity="0" result="BackgroundImageFix"/>
<feBlend mode="normal" in="SourceGraphic" in2="BackgroundImageFix" result="shape"/>
<feGaussianBlur stdDeviation="5.2" result="effect1_foregroundBlur_0_23"/>
</filter>
</defs>
</svg>
